<svg width="85" height="42" viewBox="0 0 85 42" xmlns="http://www.w3.org/2000/svg">
    <g fill-rule="nonzero" fill="none">
        <path d="M0 0h84.457v42H0z"/>
        <path d="M64.373.965c1.057-.557 2.54-.718 3.456.107.916.825.696 2.048 0 3.973 0 0-1.55 4.066-3.146 8.262l-.41 1.08c-1.457 3.83-2.845 7.487-3.015 7.963-1.543 4.245 2.026 4.122 4.145-.152 1.193-2.394 2.722-6.357 2.722-6.357.54-1.563.703-2.504.37-2.828-.11-.113.047-.252.187-.323 2.336-1.149 4.768-.072 3.435 3.31-.025.065-.598 1.463-1.22 2.981l-.209.509-1.386 3.381c-.697 1.66-.613 3.236.43 3.236.706-.004 1.502-.385 2.372-1.088 1.873-1.504 3.319-4.312 3.839-5.454.236-.508 1.12-2.42 1.82-4.361.242-.665.379-1.36.406-2.065a.438.438 0 0 1 .2-.459 3.774 3.774 0 0 1 1.72-.42 1.88 1.88 0 0 1 1.509.705c.456.598.583 1.579.106 2.808-.123.32-3.888 9.958-3.888 9.958v.026c2.102-1.223 3.985-1.313 5.101-.854l-.003-.013c1.54.647 2.05 2.44.966 3.559-.106.11-.373.084-.373-.09-.097-1.253-2.592-3.495-6.291-1.075l-.15.385-1.1 2.808c-2.699 7.018-5.565 12.136-9.697 11-2.769-.76-2.449-4.607.53-7.79a55.988 55.988 0 0 1 6.685-5.898l.193-.511.165-.455.313-.878c.105-.295.214-.6.338-.932l.164-.518c-.184.2-.514.573-.734.812-.733.8-2.569 2.757-5.488 2.207l-.233-.05c-2.118-.506-2.694-1.986-2.742-3.28-2.206 2.657-4.482 3.427-5.982 3.391-2.006-.048-3.479-1.514-2.499-4.29 1.09-3.106 5.665-15.332 6.998-19 .5-1.58.686-2.58.19-2.974-.127-.103.053-.265.206-.346zm8.614 28.778c-1.136.88-5.691 4.53-6.954 7.441-.52 1.197-.387 2.149.503 2.233 2.02.194 4.132-3.818 6.414-9.512zM16.51 5.352c-.09.332-1.36 3.86-2.783 7.749l-.215.586-.216.589-.222.604c4.832-1.123 13.456-6.57 14.455-10.085.124-.161.3-.22.584-.035.51.33.706 1.155.51 1.918-.787 3.038-6.608 7.341-11.72 9.554.63 1.637 2.762 6.267 4.332 9.111 1.713 3.119 3.522 4.575 6.331 4.737 1.504.085 3.104-.447 4.01-1.22l.152-.14-.013.03c.2-.204.526.077.376.323-1.16 1.68-3.061 2.74-5.141 2.867-6.535.427-9.037-3.87-13.703-14.494-.376.126-.833.288-1.293.45-.076.187-2.132 5.642-2.192 5.823-.973 2.87-1.036 4.442-.37 4.895.15.09.077.333-.183.414-2.603.796-4.999-.696-3.666-4.442C6.74 21.27 11.404 8.406 12.663 4.96c.44-1.294.204-2.125-.506-2.306C8.76 1.78.904 8.749 2.03 15.184c.197 1.12 1.01 1.747 1.42 1.663a.14.14 0 0 1 .124.037.13.13 0 0 1 .036.122c-.238.789-1.083 1.248-1.9 1.032C.504 17.782.11 16.527.044 15.88-.619 9.22 6.332 1.23 12.76.58c2.45-.25 4.748.96 3.749 4.772zm24.76 9.913-.062.207-2.915 8.16c-.314.85-.104 1.737.516 1.902 1.81.482 4.149-2.145 5.285-4.733a66.597 66.597 0 0 0 1.52-3.815c.6-1.643 1.14-3.183.806-3.908-.077-.168.047-.256.23-.35.52-.255 2.293-.825 3.236.068.717.675.626 1.776-.037 3.448l-.093.231.227-.273c2.783-3.3 4.934-4.292 6.759-3.597l.151.062c2.453 1.074 1.18 5.215-2.179 5.48-.207.017-.367-.126-.163-.407.406-.605.366-1.909-.82-2.022-1.186-.113-2.916 1.207-4.159 2.844-1.116 1.45-2.266 3.911-3.422 7.273-.28.818-.146 1.012-.113 1.067a.098.098 0 0 1 0 .094c-.147.272-.993.596-1.813.596-1.673-.007-2.36-.945-2.026-2.437-1.903 1.764-3.822 2.614-5.515 2.466a2.617 2.617 0 0 1-1.884-1.04 2.465 2.465 0 0 1-.418-2.063c-1.47 1.809-3.65 3.268-5.869 3.067-2.219-.2-3.605-1.666-2.885-4.788.606-2.598 1.64-5.29 2.272-7.027.53-1.456.637-2.407.304-2.75-.107-.114.056-.25.2-.324 1.739-.886 4.525-.314 3.738 2.09-.826 2.527-2.322 6.49-2.626 7.4-.76 2.287-.3 3.523.777 3.58 1.076.06 2.502-.96 3.522-2.503 1.813-2.524 2.66-5.685 3.479-7.882.21-.56.543-1.866.19-2.352-.093-.123.07-.258.283-.372 1.583-.849 4.414-.64 3.504 2.608z" fill="#5F0080"/>
    </g>
</svg>
